P1
# Created by GIMP version 2.10.38 PNM plug-in
16 16
0000000000000000011111111111100001111111111111000000000000001100000000
0000000000000000000000110001111111111111000111111111111000011000000000
0000011000000000000001100000011000000110000001100000011000000000000001
1100011001100000110001100110000000000000000000