P3
# file written by ianic-dev's imglib, built referencing the netpbm documentation
16 16
255
22
24
28
22
24
28
22
24
28
22
24
28
22
24
28
22
24
28
22
24
28
22
24
28
22
24
28
22
24
28
22
24
28
22
24
28
22
24
28
22
24
28
22
24
28
22
24
28
22
24
28
199
156
23
199
156
23
199
156
23
199
156
23
199
156
23
199
156
23
199
156
23
199
156
23
199
156
23
199
156
23
199
156
23
199
156
23
22
24
28
22
24
28
22
24
28
22
24
28
199
156
23
199
156
23
199
156
23
199
156
23
199
156
23
199
156
23
199
156
23
199
156
23
199
156
23
199
156
23
199
156
23
199
156
23
199
156
23
22
24
28
22
24
28
22
24
28
22
24
28
22
24
28
22
24
28
22
24
28
22
24
28
22
24
28
22
24
28
22
24
28
22
24
28
22
24
28
22
24
28
199
156
23
199
156
23
22
24
28
22
24
28
22
24
28
22
24
28
22
24
28
22
24
28
22
24
28
22
24
28
22
24
28
22
24
28
22
24
28
22
24
28
22
24
28
22
24
28
22
24
28
22
24
28
22
24
28
22
24
28
22
24
28
22
24
28
22
24
28
22
24
28
22
24
28
22
24
28
22
24
28
22
24
28
22
24
28
22
24
28
22
24
28
22
24
28
199
156
23
199
156
23
22
24
28
22
24
28
22
24
28
199
156
23
199
156
23
199
156
23
199
156
23
199
156
23
199
156
23
199
156
23
199
156
23
199
156
23
199
156
23
199
156
23
199
156
23
199
156
23
22
24
28
22
24
28
22
24
28
199
156
23
199
156
23
199
156
23
199
156
23
199
156
23
199
156
23
199
156
23
199
156
23
199
156
23
199
156
23
199
156
23
199
156
23
22
24
28
22
24
28
22
24
28
22
24
28
199
156
23
199
156
23
22
24
28
22
24
28
22
24
28
22
24
28
22
24
28
22
24
28
22
24
28
22
24
28
22
24
28
22
24
28
22
24
28
22
24
28
22
24
28
22
24
28
199
156
23
199
156
23
22
24
28
22
24
28
22
24
28
22
24
28
22
24
28
22
24
28
22
24
28
22
24
28
22
24
28
22
24
28
22
24
28
22
24
28
22
24
28
22
24
28
199
156
23
199
156
23
22
24
28
22
24
28
22
24
28
22
24
28
22
24
28
22
24
28
199
156
23
199
156
23
22
24
28
22
24
28
22
24
28
22
24
28
22
24
28
22
24
28
199
156
23
199
156
23
22
24
28
22
24
28
22
24
28
22
24
28
22
24
28
22
24
28
199
156
23
199
156
23
22
24
28
22
24
28
22
24
28
22
24
28
22
24
28
22
24
28
199
156
23
199
156
23
22
24
28
22
24
28
22
24
28
22
24
28
22
24
28
22
24
28
22
24
28
22
24
28
22
24
28
22
24
28
22
24
28
22
24
28
22
24
28
22
24
28
199
156
23
199
156
23
199
156
23
22
24
28
22
24
28
22
24
28
199
156
23
199
156
23
22
24
28
22
24
28
199
156
23
199
156
23
22
24
28
22
24
28
22
24
28
22
24
28
22
24
28
199
156
23
199
156
23
22
24
28
22
24
28
22
24
28
199
156
23
199
156
23
22
24
28
22
24
28
199
156
23
199
156
23
22
24
28
22
24
28
22
24
28
22
24
28
22
24
28
22
24
28
22
24
28
22
24
28
22
24
28
22
24
28
22
24
28
22
24
28
22
24
28
22
24
28
22
24
28
22
24
28
22
24
28
22
24
28
22
24
28
